<?xml version="1.0"?>
<svg xmlns="http://www.w3.org/2000/svg" viewBox="0 0 16 16">
    <path style="line-height:normal;text-indent:0;text-align:start;text-decoration-line:none;text-decoration-style:solid;text-decoration-color:#000;text-transform:none;block-progression:tb;isolation:auto;mix-blend-mode:normal" d="M 5 2 L 7.5 4.5 L 10 2 L 5 2 z M 2.5 6 C 1.6774686 6 1 6.6774686 1 7.5 L 1 14 L 14 14 L 14 13.5 L 14 7.5 C 14 6.6774686 13.322531 6 12.5 6 L 2.5 6 z M 2.5 7 L 12.5 7 C 12.781469 7 13 7.2185314 13 7.5 L 13 8 L 2 8 L 2 7.5 C 2 7.2185314 2.2185314 7 2.5 7 z M 2 9 L 13 9 L 13 13 L 2 13 L 2 9 z" font-weight="400" font-family="sans-serif" white-space="normal" overflow="visible"/>
</svg>
