<svg enable-background="new 0 0 16 16" version="1.1" viewBox="0 0 16 16" xml:space="preserve" xmlns="http://www.w3.org/2000/svg">
			<polygon points="13.5 15.9 11.2 13.7 11.8 13 13.5 14.6 15.2 13 15.8 13.7"/>
			<rect x="13" y="10.8" width="1" height="4.5"/>
			<path d="m4 5.9h-0.1c-0.3-0.1-0.5-0.4-0.4-0.7l1.4-4.5c0.1-0.3 0.4-0.4 0.6-0.4 0.3 0.1 0.5 0.4 0.4 0.7l-1.4 4.5c-0.1 0.2-0.3 0.4-0.5 0.4z"/>
			<path d="m12 5.9c-0.2 0-0.4-0.1-0.5-0.4l-1.4-4.5c-0.1-0.3 0.1-0.5 0.3-0.6 0.3-0.1 0.5 0.1 0.6 0.3l1.4 4.5c0.1 0.3-0.1 0.5-0.3 0.6 0 0.1-0.1 0.1-0.1 0.1z"/>
			<path d="m10 14.4h-7.5c-0.2 0-0.4-0.2-0.5-0.4l-2-8.5c0-0.1 0-0.3 0.1-0.4s0.2-0.2 0.4-0.2h15c0.2 0 0.3 0.1 0.4 0.2s0.1 0.3 0.1 0.4l-0.9 3.5c-0.1 0.3-0.3 0.4-0.6 0.4-0.3-0.1-0.4-0.3-0.4-0.6l0.7-2.9h-13.7l1.8 7.5h7.1c0.3 0 0.5 0.2 0.5 0.5s-0.3 0.5-0.5 0.5z"/>
</svg>