<svg enable-background="new 0 0 16 16" version="1.1" viewBox="0 0 16 16" xml:space="preserve" xmlns="http://www.w3.org/2000/svg"> <path d="m4 5.9h-0.1c-0.3-0.1-0.5-0.4-0.4-0.7l1.4-4.5c0.1-0.3 0.4-0.4 0.6-0.4 0.3 0.1 0.5 0.4 0.4 0.7l-1.4 4.5c-0.1 0.2-0.3 0.4-0.5 0.4z"/> <path d="m12 5.9c-0.2 0-0.4-0.1-0.5-0.4l-1.4-4.5c-0.1-0.3 0.1-0.5 0.3-0.6 0.3-0.1 0.5 0.1 0.6 0.3l1.4 4.5c0.1 0.3-0.1 0.5-0.3 0.6 0 0.1-0.1 0.1-0.1 0.1z"/> <path d="m10 14.4h-7.5c-0.2 0-0.4-0.2-0.5-0.4l-2-8.5c0-0.1 0-0.3 0.1-0.4s0.2-0.2 0.4-0.2h15c0.2 0 0.3 0.1 0.4 0.2s0.1 0.3 0.1 0.4l-1.1 4.2c-0.1 0.3-0.3 0.4-0.6 0.4-0.3-0.1-0.5-0.3-0.4-0.6l0.9-3.6h-13.7l1.8 7.5h7.1c0.3 0 0.5 0.2 0.5 0.5s-0.3 0.5-0.5 0.5z"/> <rect transform="matrix(.7071 -.7071 .7071 .7071 -5.5919 13.5)" x="13" y="10.7" width="1" height="5.7"/> <rect transform="matrix(.7071 -.7071 .7071 .7071 -5.5919 13.5)" x="10.7" y="13" width="5.7" height="1"/> </svg>