<svg enable-background="new 0 0 16 16" version="1.1" viewBox="0 0 16 16" xml:space="preserve" xmlns="http://www.w3.org/2000/svg">
			<path d="m4 6.2h-0.1c-0.3-0.1-0.5-0.4-0.4-0.7l1.4-4.5c0.1-0.3 0.4-0.4 0.6-0.3 0.3 0.1 0.5 0.3 0.4 0.6l-1.4 4.5c-0.1 0.2-0.3 0.4-0.5 0.4z"/>
			<path d="m12 6.2c-0.2 0-0.4-0.1-0.5-0.4l-1.4-4.5c-0.1-0.3 0.1-0.5 0.4-0.6 0.2-0.1 0.5 0 0.6 0.3l1.4 4.5c0.1 0.3-0.1 0.5-0.3 0.6-0.1 0.1-0.2 0.1-0.2 0.1z"/>
			<path d="m9.3 14.7h-6.8c-0.2 0-0.4-0.2-0.5-0.4l-2-8.5c0-0.1 0-0.3 0.1-0.4s0.2-0.2 0.4-0.2h15c0.2 0 0.3 0.1 0.4 0.2s0.1 0.3 0.1 0.4l-0.9 3.5c-0.1 0.3-0.3 0.4-0.6 0.4-0.3-0.1-0.4-0.3-0.4-0.6l0.7-2.9h-13.7l1.8 7.5h6.4c0.3 0 0.5 0.2 0.5 0.5s-0.2 0.5-0.5 0.5z"/>
	<polygon points="12.6 15.7 10.2 13.7 10.8 12.9 12.4 14.3 15.1 10.7 15.9 11.3"/>
</svg>