<?xml version="1.0"?>
<svg xmlns="http://www.w3.org/2000/svg" viewBox="0 0 16 16">
    <path style="line-height:normal;text-indent:0;text-align:start;text-decoration-line:none;text-decoration-style:solid;text-decoration-color:#000;text-transform:none;block-progression:tb;isolation:auto;mix-blend-mode:normal" d="M 2.5 2 C 1.6774686 2 1 2.6774686 1 3.5 L 1 10 L 14 10 L 14 9.5 L 14 3.5 C 14 2.6774686 13.322531 2 12.5 2 L 2.5 2 z M 2.5 3 L 12.5 3 C 12.781469 3 13 3.2185314 13 3.5 L 13 4 L 2 4 L 2 3.5 C 2 3.2185314 2.2185314 3 2.5 3 z M 2 5 L 13 5 L 13 9 L 2 9 L 2 5 z M 7.5 11.5 L 5 14 L 10 14 L 7.5 11.5 z" font-weight="400" font-family="sans-serif" white-space="normal" overflow="visible"/>
</svg>
